<?xml version="1.0" encoding="UTF-8" standalone="no"?>
<!-- Created with Inkscape (http://www.inkscape.org/) -->

<svg
   width="137.21643mm"
   height="227.69675mm"
   viewBox="0 0 137.21643 227.69675"
   version="1.1"
   id="svg5"
   inkscape:version="1.1 (c68e22c387, 2021-05-23)"
   sodipodi:docname="logo.svg"
   xmlns:inkscape="http://www.inkscape.org/namespaces/inkscape"
   xmlns:sodipodi="http://sodipodi.sourceforge.net/DTD/sodipodi-0.dtd"
   xmlns="http://www.w3.org/2000/svg"
   xmlns:svg="http://www.w3.org/2000/svg">
  <sodipodi:namedview
     id="namedview7"
     pagecolor="#ffffff"
     bordercolor="#666666"
     borderopacity="1.0"
     inkscape:pageshadow="2"
     inkscape:pageopacity="0.0"
     inkscape:pagecheckerboard="0"
     inkscape:document-units="mm"
     showgrid="false"
     inkscape:snap-global="false"
     inkscape:zoom="0.022047486"
     inkscape:cx="-8459.0142"
     inkscape:cy="748.38463"
     inkscape:window-width="1366"
     inkscape:window-height="745"
     inkscape:window-x="-8"
     inkscape:window-y="-8"
     inkscape:window-maximized="1"
     inkscape:current-layer="layer1"
     fit-margin-top="0"
     fit-margin-left="0"
     fit-margin-right="0"
     fit-margin-bottom="0" />
  <defs
     id="defs2">
    <inkscape:path-effect
       effect="bspline"
       id="path-effect23526"
       is_visible="true"
       lpeversion="1"
       weight="33.333333"
       steps="2"
       helper_size="0"
       apply_no_weight="true"
       apply_with_weight="true"
       only_selected="false" />
    <inkscape:path-effect
       effect="bspline"
       id="path-effect23522"
       is_visible="true"
       lpeversion="1"
       weight="33.333333"
       steps="2"
       helper_size="0"
       apply_no_weight="true"
       apply_with_weight="true"
       only_selected="false" />
    <inkscape:path-effect
       effect="bspline"
       id="path-effect23518"
       is_visible="true"
       lpeversion="1"
       weight="33.333333"
       steps="2"
       helper_size="0"
       apply_no_weight="true"
       apply_with_weight="true"
       only_selected="false" />
    <inkscape:path-effect
       effect="bspline"
       id="path-effect23514"
       is_visible="true"
       lpeversion="1"
       weight="33.333333"
       steps="2"
       helper_size="0"
       apply_no_weight="true"
       apply_with_weight="true"
       only_selected="false" />
    <inkscape:path-effect
       effect="bspline"
       id="path-effect23510"
       is_visible="true"
       lpeversion="1"
       weight="33.333333"
       steps="2"
       helper_size="0"
       apply_no_weight="true"
       apply_with_weight="true"
       only_selected="false" />
    <inkscape:path-effect
       effect="bspline"
       id="path-effect23506"
       is_visible="true"
       lpeversion="1"
       weight="33.333333"
       steps="2"
       helper_size="0"
       apply_no_weight="true"
       apply_with_weight="true"
       only_selected="false" />
    <inkscape:path-effect
       effect="bspline"
       id="path-effect23502"
       is_visible="true"
       lpeversion="1"
       weight="33.333333"
       steps="2"
       helper_size="0"
       apply_no_weight="true"
       apply_with_weight="true"
       only_selected="false" />
    <inkscape:path-effect
       effect="bspline"
       id="path-effect23498"
       is_visible="true"
       lpeversion="1"
       weight="33.333333"
       steps="2"
       helper_size="0"
       apply_no_weight="true"
       apply_with_weight="true"
       only_selected="false" />
    <inkscape:path-effect
       effect="bspline"
       id="path-effect23494"
       is_visible="true"
       lpeversion="1"
       weight="33.333333"
       steps="2"
       helper_size="0"
       apply_no_weight="true"
       apply_with_weight="true"
       only_selected="false" />
    <inkscape:path-effect
       effect="bspline"
       id="path-effect23490"
       is_visible="true"
       lpeversion="1"
       weight="33.333333"
       steps="2"
       helper_size="0"
       apply_no_weight="true"
       apply_with_weight="true"
       only_selected="false" />
    <inkscape:path-effect
       effect="bspline"
       id="path-effect23346"
       is_visible="true"
       lpeversion="1"
       weight="33.333333"
       steps="2"
       helper_size="0"
       apply_no_weight="true"
       apply_with_weight="true"
       only_selected="false" />
    <inkscape:path-effect
       effect="bspline"
       id="path-effect23340"
       is_visible="true"
       lpeversion="1"
       weight="33.333333"
       steps="2"
       helper_size="0"
       apply_no_weight="true"
       apply_with_weight="true"
       only_selected="false" />
    <inkscape:path-effect
       effect="bspline"
       id="path-effect23334"
       is_visible="true"
       lpeversion="1"
       weight="33.333333"
       steps="2"
       helper_size="0"
       apply_no_weight="true"
       apply_with_weight="true"
       only_selected="false" />
    <inkscape:path-effect
       effect="bspline"
       id="path-effect23248"
       is_visible="true"
       lpeversion="1"
       weight="33.333333"
       steps="2"
       helper_size="0"
       apply_no_weight="true"
       apply_with_weight="true"
       only_selected="false" />
    <inkscape:path-effect
       effect="bspline"
       id="path-effect11430"
       is_visible="true"
       lpeversion="1"
       weight="33.333333"
       steps="2"
       helper_size="0"
       apply_no_weight="true"
       apply_with_weight="true"
       only_selected="false" />
    <inkscape:path-effect
       effect="bspline"
       id="path-effect11426"
       is_visible="true"
       lpeversion="1"
       weight="33.333333"
       steps="2"
       helper_size="0"
       apply_no_weight="true"
       apply_with_weight="true"
       only_selected="false" />
    <inkscape:path-effect
       effect="bspline"
       id="path-effect11422"
       is_visible="true"
       lpeversion="1"
       weight="33.333333"
       steps="2"
       helper_size="0"
       apply_no_weight="true"
       apply_with_weight="true"
       only_selected="false" />
    <inkscape:path-effect
       effect="bspline"
       id="path-effect11418"
       is_visible="true"
       lpeversion="1"
       weight="33.333333"
       steps="2"
       helper_size="0"
       apply_no_weight="true"
       apply_with_weight="true"
       only_selected="false" />
    <inkscape:path-effect
       effect="bspline"
       id="path-effect11414"
       is_visible="true"
       lpeversion="1"
       weight="33.333333"
       steps="2"
       helper_size="0"
       apply_no_weight="true"
       apply_with_weight="true"
       only_selected="false" />
    <inkscape:path-effect
       effect="bspline"
       id="path-effect11410"
       is_visible="true"
       lpeversion="1"
       weight="33.333333"
       steps="2"
       helper_size="0"
       apply_no_weight="true"
       apply_with_weight="true"
       only_selected="false" />
    <inkscape:path-effect
       effect="bspline"
       id="path-effect11406"
       is_visible="true"
       lpeversion="1"
       weight="33.333333"
       steps="2"
       helper_size="0"
       apply_no_weight="true"
       apply_with_weight="true"
       only_selected="false" />
    <inkscape:path-effect
       effect="bspline"
       id="path-effect11384"
       is_visible="true"
       lpeversion="1"
       weight="33.333333"
       steps="2"
       helper_size="0"
       apply_no_weight="true"
       apply_with_weight="true"
       only_selected="false" />
    <inkscape:path-effect
       effect="bspline"
       id="path-effect11147"
       is_visible="true"
       lpeversion="1"
       weight="33.333333"
       steps="2"
       helper_size="0"
       apply_no_weight="true"
       apply_with_weight="true"
       only_selected="false" />
    <inkscape:path-effect
       effect="bspline"
       id="path-effect11003"
       is_visible="true"
       lpeversion="1"
       weight="33.333333"
       steps="2"
       helper_size="0"
       apply_no_weight="true"
       apply_with_weight="true"
       only_selected="false" />
    <inkscape:path-effect
       effect="bspline"
       id="path-effect2705"
       is_visible="true"
       lpeversion="1"
       weight="33.333333"
       steps="2"
       helper_size="0"
       apply_no_weight="true"
       apply_with_weight="true"
       only_selected="false" />
    <inkscape:path-effect
       effect="bspline"
       id="path-effect2701"
       is_visible="true"
       lpeversion="1"
       weight="33.333333"
       steps="2"
       helper_size="0"
       apply_no_weight="true"
       apply_with_weight="true"
       only_selected="false" />
    <inkscape:path-effect
       effect="bspline"
       id="path-effect2697"
       is_visible="true"
       lpeversion="1"
       weight="33.333333"
       steps="2"
       helper_size="0"
       apply_no_weight="true"
       apply_with_weight="true"
       only_selected="false" />
    <inkscape:path-effect
       effect="bspline"
       id="path-effect2693"
       is_visible="true"
       lpeversion="1"
       weight="33.333333"
       steps="2"
       helper_size="0"
       apply_no_weight="true"
       apply_with_weight="true"
       only_selected="false" />
    <inkscape:path-effect
       effect="bspline"
       id="path-effect2685"
       is_visible="true"
       lpeversion="1"
       weight="33.333333"
       steps="2"
       helper_size="0"
       apply_no_weight="true"
       apply_with_weight="true"
       only_selected="false" />
    <inkscape:path-effect
       effect="bspline"
       id="path-effect2681"
       is_visible="true"
       lpeversion="1"
       weight="33.333333"
       steps="2"
       helper_size="0"
       apply_no_weight="true"
       apply_with_weight="true"
       only_selected="false" />
    <inkscape:path-effect
       effect="bspline"
       id="path-effect2677"
       is_visible="true"
       lpeversion="1"
       weight="33.333333"
       steps="2"
       helper_size="0"
       apply_no_weight="true"
       apply_with_weight="true"
       only_selected="false" />
    <inkscape:path-effect
       effect="bspline"
       id="path-effect1961"
       is_visible="true"
       lpeversion="1"
       weight="33.333333"
       steps="2"
       helper_size="0"
       apply_no_weight="true"
       apply_with_weight="true"
       only_selected="false" />
    <inkscape:path-effect
       effect="bspline"
       id="path-effect871"
       is_visible="true"
       lpeversion="1"
       weight="33.333333"
       steps="2"
       helper_size="0"
       apply_no_weight="true"
       apply_with_weight="true"
       only_selected="false" />
  </defs>
  <g
     inkscape:label="Layer 1"
     inkscape:groupmode="layer"
     id="layer1"
     transform="translate(-28.736049,-6.9379121)">
    <path
       style="fill:#ff6600;stroke:#ffffff;stroke-width:4;stroke-linecap:butt;stroke-linejoin:miter;stroke-miterlimit:4;stroke-dasharray:none;stroke-opacity:1"
       d="m 50.487162,116.71773 c -0.06252,1.07427 -0.125,2.14775 -0.1875,3.22162 4.468977,-0.0976 8.938211,-0.19525 13.40693,-0.29287"
       id="path2695"
       inkscape:original-d="m 50.487162,116.71773 c -0.0622,1.07429 -0.1875,3.22162 -0.1875,3.22162 0,0 8.93822,-0.19483 13.40693,-0.29287"
       inkscape:path-effect="#path-effect2697" />
    <g
       id="g23566">
      <path
         id="path869"
         style="fill:#ff6600;fill-opacity:1;stroke:#1a1a1a;stroke-width:0;stroke-linecap:butt;stroke-linejoin:miter;stroke-miterlimit:4;stroke-dasharray:none;stroke-opacity:1"
         d="m 94.129989,6.9379126 c -3.249901,0.8753089 -6.500331,1.7503658 -9.750825,2.6251627 -2.999888,2.0003667 -6.000006,4.0002737 -9.000484,6.0001507 -2.234224,3.000418 -6.703468,9.000484 -6.703468,9.000484 0,0 -3.298975,-2.678332 -4.949052,-4.017843 -3.049286,-0.839467 -6.098916,-1.678696 -9.148794,-2.518709 -3.226075,0.530622 -6.452328,1.060498 -9.678995,1.590601 -2.637105,1.898871 -5.274495,3.797396 -7.91218,5.695776 -1.406059,1.859734 -2.812248,3.719228 -4.218863,5.578471 -0.546637,1.250328 -1.093552,2.500334 -1.640726,3.750158 -0.54664,1.797232 -1.093547,3.594148 -1.640726,5.390886 -0.187246,1.234703 -0.37498,2.469452 -0.562758,3.70365 -0.06224,2.078496 -0.124298,4.156753 -0.187068,6.234761 0.42216,2.015992 0.843914,4.031673 1.265554,6.047175 0.890934,2.187877 1.781768,4.375518 2.672189,6.562908 1.489718,2.053926 2.978729,4.107426 4.467944,6.160865 1.967005,1.41455 3.933902,2.828584 5.900415,4.242633 2.077498,0.751605 4.154651,1.503037 6.231662,2.254126 0.775608,0.04787 1.391801,0.08566 2.326474,0.143145 0.288882,-0.20387 0.536882,-0.37668 0.93586,-0.664044 2.534552,-1.825553 7.475286,-5.480372 12.415779,-9.134842 l -10.659298,13.520105 4.772835,24.214028 c 0,0 3.875709,-1.37459 5.813081,-2.06241 5.313037,-0.49976 10.625436,-0.99986 15.938047,-1.500164 5.375537,-0.187246 10.750513,-0.374462 16.125629,-0.56224 4.000469,2.65e-4 8.000799,2.65e-4 12.000819,0 4.5005,0.375282 9.00042,0.750234 13.50047,1.124994 2.5629,0.43779 5.12549,0.87532 7.6879,1.31258 1.93787,0.50029 5.81308,1.50017 5.81308,1.50017 l 4.39198,-22.19968 -12.09952,-15.347383 c 4.94049,3.65447 9.88071,7.309289 12.41527,9.134842 0.55637,0.40073 0.65633,0.456378 1.00562,0.700218 0.28651,-0.02387 3.02609,-0.251947 4.53874,-0.378273 2.12169,-0.927862 4.24327,-1.855917 6.36447,-2.784326 1.67973,-1.325626 3.35921,-2.65135 5.03845,-3.977534 1.76812,-2.297952 3.53592,-4.596149 5.30355,-6.894669 1.01678,-3.181879 2.03316,-6.364234 3.04943,-9.546705 -0.0881,-0.883664 -0.1764,-1.767307 -0.2651,-2.651518 -0.0439,-3.535449 -0.0883,-7.071055 -0.13281,-10.607104 -1.41402,-2.872503 -2.82806,-5.745505 -4.24264,-8.618595 -1.98857,-2.342146 -3.97742,-4.684239 -5.96656,-7.026961 -2.29795,-1.193039 -4.59614,-2.386551 -6.89466,-3.580143 -3.33657,-0.331209 -6.67359,-0.662511 -10.01076,-0.994255 -2.16536,0.773702 -4.33084,1.547083 -6.49676,2.320272 -1.31458,0.862095 -2.62934,1.723789 -3.94447,2.585372 -0.55219,0.475376 -1.65726,1.425236 -1.65726,1.425236 l -0.29869,-0.430465 c 0,0 -0.52985,-0.795685 -0.7953,-1.193726 -1.19304,-1.635003 -2.38655,-3.270078 -3.58014,-4.905643 -1.76759,-1.6792 -3.53541,-3.358689 -5.30355,-5.038452 -2.41089,-1.435784 -4.82169,-2.871923 -7.23315,-4.3082643 -2.49986,-0.6247673 -4.99988,-1.249512 -7.50032,-1.8748211 -2.499866,2.646e-4 -4.999879,2.646e-4 -7.500321,0 z" />
      <g
         id="g23400"
         transform="matrix(1.0043222,0,0,0.76546406,2.5746246,46.241382)">
        <g
           id="g21527"
           transform="translate(0,-5.8339286)">
          <path
             style="fill:#ff6600;fill-opacity:1;stroke:none;stroke-width:5.10604;stroke-linejoin:round;stroke-miterlimit:4;stroke-dasharray:none"
             d="m 65.261806,239.20734 c -0.759381,-4.2817 -1.434801,-7.9655 -1.500933,-8.18621 -0.122083,-0.40746 1.993177,-0.3714 9.709761,0.16555 l 3.388152,0.23577 -2.089714,3.64758 c -2.165928,3.78064 -4.382299,7.11491 -6.750797,10.15584 l -1.375779,1.76637 z"
             id="path6537" />
          <path
             style="fill:#ff6600;fill-opacity:1;stroke:none;stroke-width:4.17681;stroke-linejoin:round;stroke-miterlimit:4;stroke-dasharray:none"
             d="m 60.722637,134.10268 c 0,-0.11371 0.332343,-0.82934 0.738536,-1.59028 1.67261,-3.13333 2.972303,-8.76533 2.968848,-12.86501 -0.0036,-4.29171 -0.860712,-9.45293 -2.187132,-13.17036 l -0.679563,-1.90455 2.688698,-9.9e-4 c 1.478781,-5e-4 4.362583,-0.10293 6.408445,-0.22733 l 3.719748,-0.22628 0.673095,2.41388 c 1.36763,4.90465 2.76896,11.7085 3.912496,18.99624 0.646083,4.11751 1.1747,7.77778 1.1747,8.13395 0,0.62052 -0.405847,0.64759 -9.708938,0.64759 -5.339913,0 -9.708933,-0.0931 -9.708933,-0.20677 z"
             id="path6459" />
          <path
             style="fill:#ff6600;fill-opacity:1;stroke:none;stroke-width:5.32262;stroke-linejoin:round;stroke-miterlimit:4;stroke-dasharray:none"
             d="m 50.748677,106.68058 c 0,-0.14183 0.624154,-5.30258 1.38701,-11.468097 l 1.387011,-11.210049 1.651929,-0.335392 c 6.184267,-1.255632 14.876049,6.48399 19.202287,17.098788 l 1.189658,2.91891 -3.30941,0.33622 c -1.820174,0.18496 -6.779819,0.45858 -11.021433,0.60807 -6.960189,0.24534 -7.841257,0.37113 -9.037637,1.29047 -1.475672,1.13394 -1.449415,1.12015 -1.449415,0.76108 z"
             id="path6420" />
          <path
             style="fill:#ff6600;fill-opacity:1;stroke:none;stroke-width:4.89962;stroke-linejoin:round;stroke-miterlimit:4;stroke-dasharray:none"
             d="m 67.94319,230.62035 c -1.875958,-0.15777 -4.134372,-0.30743 -5.018702,-0.33255 l -1.607868,-0.0456 -0.362486,-2.87599 c -0.342839,-2.72012 -0.328516,-3.07271 0.26428,-6.50523 0.501078,-2.90145 0.62941,-4.67292 0.639941,-8.83347 0.0144,-5.68439 -0.399308,-9.1715 -1.538861,-12.97137 -0.356713,-1.18947 -0.60793,-2.22465 -0.558259,-2.30045 0.07063,-0.10777 23.572327,-0.86807 23.691677,-0.76644 0.01639,0.0141 -0.189621,2.00695 -0.457783,4.42891 -1.063346,9.60368 -3.150335,20.46492 -5.288408,27.52217 l -0.939931,3.10253 -2.706381,-0.0678 c -1.488513,-0.0375 -4.241259,-0.19685 -6.117219,-0.35468 z"
             id="path6498" />
          <g
             id="g21434">
            <path
               style="fill:#ff6600;stroke:#ffffff;stroke-width:4;stroke-linecap:butt;stroke-linejoin:miter;stroke-miterlimit:4;stroke-dasharray:none;stroke-opacity:1"
               d="m 50.404292,117.62377 c 0.4026,-3.42566 0.805242,-6.85168 1.819107,-9.34586 1.013864,-2.49418 2.638918,-4.05616 4.326734,-4.03161 1.687816,0.0246 3.437864,1.63534 4.812825,4.56421 1.374961,2.92887 2.374991,7.17548 2.312377,11.20249 -0.06261,4.027 -1.187646,7.83431 -3.4065,10.86056 -2.218853,3.02626 -5.53146,5.2716 -8.343984,4.68602 -2.812524,-0.58559 -5.125093,-4.00241 -6.797148,-7.95626 -1.672056,-3.95384 -2.703339,-8.44451 -3.062793,-13.32586 -0.359455,-4.88134 -0.04694,-10.15301 0.937454,-14.448641 0.984398,-4.295635 2.640698,-7.614836 5.234689,-10.202047 2.593991,-2.587211 6.125353,-4.442056 9.891377,-4.197846 3.766023,0.244209 7.766147,2.58717 10.990735,6.252627 3.224588,3.665457 5.673632,8.652957 7.870445,16.531327 2.196814,7.87836 4.141411,18.64704 5.334685,32.10834 1.193274,13.46131 1.635232,29.61436 1.226378,43.84789 -0.408853,14.23354 -1.668401,26.54654 -4.154541,36.84534 -2.48614,10.29879 -6.198475,18.5822 -8.572443,22.93302 -2.373967,4.35082 -3.409456,4.76877 -1.137873,5.09371 2.271583,0.32493 7.849883,0.55678 14.389352,0.72152 6.53947,0.16474 14.0397,0.26237 21.352632,0.11592 7.31294,-0.14644 14.43815,-0.53692 19.46958,-1.562 5.03143,-1.02507 7.96903,-2.68468 11.12541,-6.3456 3.15637,-3.66091 6.53147,-9.32306 9.40664,-15.42466 2.87518,-6.1016 5.25024,-12.64235 6.84412,-19.96428 1.59387,-7.32193 2.40639,-15.42468 2.81268,-22.55138 0.40629,-7.12669 0.40629,-13.27696 0.28129,-19.96436 -0.125,-6.6874 -0.37501,-13.91153 -1.5313,-22.55146 -1.15629,-8.63994 -3.21885,-18.69513 -5.3127,-26.74927 -2.09384,-8.05415 -4.21891,-14.1068 -7.2815,-18.841738 -3.0626,-4.734935 -7.06273,-8.151757 -10.06292,-10.300622 -3.00019,-2.148865 -5.0003,-3.029527 -17.1262,-3.127232 -12.1259,-0.09771 -34.376551,0.58771 -45.82259,1.259962 -11.44604,0.672252 -12.086685,1.331208 -12.727268,1.9901"
               id="path2675"
               inkscape:original-d="m 50.404292,117.62377 c 0.40291,-3.42562 0.80555,-6.85164 1.20793,-10.27808 1.62538,-1.56161 3.25043,-3.12359 4.87525,-4.68601 1.75039,1.61127 3.50044,3.22205 5.25027,4.83246 1.00033,4.2472 2.00037,8.49381 3.00015,12.74009 -1.12481,3.80788 -2.24985,7.61518 -3.37517,11.42216 -3.31247,2.24583 -6.62507,4.49118 -9.93801,6.73615 -2.3124,-3.41654 -4.62497,-6.83336 -6.937846,-10.25067 -1.03106,-4.49043 -2.06234,-8.9811 -3.09391,-13.47228 0.31279,-5.27145 0.6253,-10.54312 0.93755,-15.815292 1.65663,-3.318927 3.31293,-6.638128 4.968996,-9.957798 3.53177,-1.854505 7.06313,-3.709354 10.59429,-5.564641 4.00055,2.343466 8.00067,4.686433 12.00061,7.029024 2.4494,4.988103 4.89844,9.975607 7.34726,14.962767 1.94494,10.76956 3.88954,21.53824 5.83392,32.30675 0.44224,16.15412 0.8842,32.30717 1.3259,48.46014 -1.25936,12.31414 -2.51891,24.62714 -3.7788,36.94051 -3.71232,8.28436 -7.42466,16.56776 -11.1375,24.85131 -1.03528,0.41838 -2.07077,0.83632 -3.10658,1.25388 5.57878,0.23227 11.15708,0.46413 16.73523,0.69557 7.5008,0.0981 15.00103,0.19568 22.501158,0.29288 7.12577,-0.39008 14.25098,-0.78056 21.37608,-1.17146 2.93797,-1.65928 5.87557,-3.31889 8.81295,-4.9789 3.37551,-5.662 6.75061,-11.32415 10.12552,-16.98683 2.37543,-6.54061 4.7505,-13.08136 7.12536,-19.62268 0.81282,-8.10264 1.62535,-16.20539 2.43762,-24.3087 2.7e-4,-6.15011 2.7e-4,-12.30038 0,-18.45119 -0.24975,-7.224 -0.49976,-14.44813 -0.75003,-21.67283 -2.06239,-10.05519 -4.12495,-20.11038 -6.18782,-30.1662 -2.12488,-6.05248 -4.24995,-12.10513 -6.37532,-18.158313 -4.00002,-3.41654 -8.00015,-6.833362 -12.00062,-10.250667 -1.99993,-0.880286 -4.00004,-1.760946 -6.00046,-2.642044 -22.25126,0.685857 -44.501908,1.371277 -66.753248,2.05629 -0.64041,0.659398 -1.28105,1.318359 -1.92198,1.976914"
               inkscape:path-effect="#path-effect2677"
               sodipodi:nodetypes="cccccccccccccccccccccccccccccccccc" />
            <path
               style="fill:#ff6600;stroke:#ffffff;stroke-width:4;stroke-linecap:butt;stroke-linejoin:miter;stroke-miterlimit:4;stroke-dasharray:none;stroke-opacity:1"
               d="m 67.738042,248.43867 c -4.312456,0.0732 -8.625176,0.14645 -12.250362,-1.42761 -3.625185,-1.57407 -6.56277,-4.79564 -8.875469,-8.35897 -2.312699,-3.56332 -4.000249,-7.46826 -4.719141,-11.71502 -0.718892,-4.24676 -0.468887,-8.83506 0.249879,-13.32591 0.718766,-4.49085 1.906304,-8.8839 3.718995,-11.61759 1.812691,-2.7337 4.250274,-3.80756 6.781791,-4.24685 2.531516,-0.43928 5.156597,-0.24404 7.000377,1.51347 1.843781,1.75751 2.906308,5.07669 3.281242,9.22579 0.374934,4.1491 0.06243,9.12788 -1.21895,13.0328 -1.281379,3.90492 -3.531458,6.736 -5.78139,6.73609 -2.249933,9e-5 -4.499996,-2.83098 -5.625204,-5.90619 -1.125208,-3.07522 -1.125208,-6.39441 -1.000238,-8.20064 0.12497,-1.80623 0.375057,-2.09919 0.62507,-2.39207 4.312717,0.19525 8.625718,0.39052 12.93815,0.58576"
               id="path2679"
               inkscape:original-d="m 67.738042,248.43867 c -4.31245,0.0736 -8.62517,0.14682 -12.93816,0.21968 -2.93744,-3.22131 -5.87503,-6.44288 -8.81295,-9.66494 -1.687346,-3.90467 -3.374896,-7.80961 -5.062746,-11.71504 0.25028,-4.58804 0.50029,-9.17634 0.75003,-13.76517 1.18785,-4.3928 2.37539,-8.78584 3.56269,-13.1794 2.437926,-1.07348 4.875506,-2.14735 7.312866,-3.22164 2.62545,0.19567 5.25053,0.39092 7.8754,0.58575 1.06284,3.31975 2.12537,6.63893 3.18766,9.95779 -0.31225,4.9794 -0.62476,9.95818 -0.93754,14.93668 -2.2499,2.83161 -4.49997,5.6627 -6.75035,8.49339 -2.24989,-2.83079 -4.49996,-5.66185 -6.75034,-8.49339 2.6e-4,-3.31892 2.6e-4,-6.63811 0,-9.95778 0.25028,-0.2925 0.75004,-0.87863 0.75004,-0.87863 0,0 8.6257,0.39091 12.93815,0.58576"
               inkscape:path-effect="#path-effect2681" />
            <path
               style="fill:#ff6600;stroke:#ffffff;stroke-width:4;stroke-linecap:butt;stroke-linejoin:miter;stroke-miterlimit:4;stroke-dasharray:none;stroke-opacity:1"
               d="m 82.551302,196.96573 c -8.672061,0.23185 -17.344381,0.46371 -26.01695,0.69557"
               id="path2683"
               inkscape:original-d="m 82.551302,196.96573 c -8.67205,0.23227 -17.34437,0.46412 -26.01695,0.69557"
               inkscape:path-effect="#path-effect2685" />
            <path
               style="fill:#ff6600;stroke:#ffffff;stroke-width:4;stroke-linecap:butt;stroke-linejoin:miter;stroke-miterlimit:4;stroke-dasharray:none;stroke-opacity:1"
               d="m 56.956242,228.01059 c 6.336558,0.45153 12.672818,0.90304 19.00879,1.35453"
               id="path2691"
               inkscape:original-d="m 56.956242,228.01059 c 6.33653,0.45193 12.67279,0.90343 19.00879,1.35453"
               inkscape:path-effect="#path-effect2693"
               sodipodi:nodetypes="cc" />
            <path
               style="fill:#ff6600;stroke:#ffffff;stroke-width:4;stroke-linecap:butt;stroke-linejoin:miter;stroke-miterlimit:4;stroke-dasharray:none;stroke-opacity:1"
               d="m 57.565652,104.41694 c 6.000553,-0.24408 12.000862,-0.48814 18.00092,-0.7322"
               id="path2699"
               inkscape:original-d="m 57.565652,104.41694 c 6.00057,-0.24366 12.00088,-0.48771 18.00092,-0.7322"
               inkscape:path-effect="#path-effect2701" />
            <path
               style="fill:#ff6600;stroke:#ffffff;stroke-width:4;stroke-linecap:butt;stroke-linejoin:miter;stroke-miterlimit:4;stroke-dasharray:none;stroke-opacity:1"
               d="m 54.237362,135.46177 c 9.215242,0.0146 18.430211,0.0293 27.64492,0.0439"
               id="path2703"
               inkscape:original-d="m 54.237362,135.46177 c 9.21524,0.0156 18.43021,0.0297 27.64492,0.0439"
               inkscape:path-effect="#path-effect2705" />
          </g>
        </g>
        <path
           style="fill:none;stroke:#ffffff;stroke-width:3;stroke-linecap:butt;stroke-linejoin:miter;stroke-miterlimit:4;stroke-dasharray:none;stroke-opacity:1"
           d="m 89.254551,106.13041 c 2.375119,-2.37512 4.750246,-4.75024 8.875667,-5.37523 4.125422,-0.62499 10.000602,0.50004 14.375852,1.43761 4.37526,0.93757 7.25035,1.68759 10.75044,0.68745 3.5001,-1.00014 7.62523,-3.750224 11.75038,-6.500325"
           id="path23246"
           inkscape:path-effect="#path-effect23248"
           inkscape:original-d="m 89.254551,106.13041 c 2.375387,-2.37485 4.750509,-4.74998 7.125364,-7.12536 5.875685,1.12534 11.750865,2.25038 17.625895,3.37517 2.87547,0.75032 5.75056,1.50034 8.62544,2.25012 4.12556,-2.74993 8.25069,-5.50002 12.37564,-8.250425" />
        <path
           style="fill:none;stroke:#ffffff;stroke-width:3;stroke-linecap:butt;stroke-linejoin:miter;stroke-miterlimit:4;stroke-dasharray:none;stroke-opacity:1"
           d="m 96.754934,140.63217 c 2.37512,-2.37512 4.750246,-4.75024 8.875666,-5.37523 4.12542,-0.62499 10.0006,0.50004 14.37585,1.43761 4.37526,0.93757 7.25035,1.68759 10.75044,0.68745 3.50009,-1.00014 7.62523,-3.75023 11.75038,-6.50033"
           id="path23330"
           inkscape:path-effect="#path-effect23334"
           inkscape:original-d="m 96.754934,140.63217 c 2.375387,-2.37485 4.750506,-4.74998 7.125366,-7.12536 5.87568,1.12534 11.75086,2.25038 17.62589,3.37517 2.87547,0.75032 5.75056,1.50034 8.62544,2.25012 4.12556,-2.74993 8.25069,-5.50002 12.37564,-8.25043" />
        <path
           style="fill:none;stroke:#ffffff;stroke-width:3;stroke-linecap:butt;stroke-linejoin:miter;stroke-miterlimit:4;stroke-dasharray:none;stroke-opacity:1"
           d="m 100.13011,173.63385 c 2.37512,-2.37512 4.75024,-4.75024 8.87566,-5.37523 4.12542,-0.62499 10.0006,0.50004 14.37585,1.43761 4.37526,0.93757 7.25035,1.68759 10.75044,0.68745 3.50009,-1.00014 7.62523,-3.75023 11.75038,-6.50033"
           id="path23336"
           inkscape:path-effect="#path-effect23340"
           inkscape:original-d="m 100.13011,173.63385 c 2.37538,-2.37485 4.7505,-4.74998 7.12536,-7.12536 5.87568,1.12534 11.75086,2.25038 17.62589,3.37517 2.87547,0.75032 5.75056,1.50034 8.62544,2.25012 4.12556,-2.74993 8.25069,-5.50002 12.37564,-8.25043" />
        <path
           style="fill:none;stroke:#ffffff;stroke-width:3;stroke-linecap:butt;stroke-linejoin:miter;stroke-miterlimit:4;stroke-dasharray:none;stroke-opacity:1"
           d="m 96.947967,209.69814 c 2.375116,-2.37511 4.750243,-4.75024 8.875663,-5.37523 4.12542,-0.62499 10.0006,0.50004 14.37585,1.43761 4.37526,0.93757 7.25035,1.68759 10.75044,0.68745 3.50009,-1.00014 7.62523,-3.75023 11.75038,-6.50033"
           id="path23342"
           inkscape:path-effect="#path-effect23346"
           inkscape:original-d="m 96.947967,209.69814 c 2.37538,-2.37485 4.750503,-4.74998 7.125363,-7.12536 5.87568,1.12534 11.75086,2.25038 17.62589,3.37517 2.87547,0.75032 5.75056,1.50034 8.62544,2.25012 4.12556,-2.74993 8.25069,-5.50002 12.37564,-8.25043" />
      </g>
    </g>
  </g>
</svg>
